<svg width="700" height="655" viewBox="0 0 700 655" fill="none" xmlns="http://www.w3.org/2000/svg">
<path fill-rule="evenodd" clip-rule="evenodd" d="M0 0H150V50H100V350H50V50H0V0Z" fill="white"/>
<path d="M650 0H700V350H660.551L605 253.579L549.449 350H510V0H560V231.528L605 153.421L650 231.528V0Z" fill="white"/>
<path fill-rule="evenodd" clip-rule="evenodd" d="M340 75C340 33.5786 373.579 0 415 0C456.421 0 490 33.5786 490 75V350H440V200H390V350H340V75ZM390 150H440V75C440 61.1929 428.807 50 415 50C401.193 50 390 61.1929 390 75V150Z" fill="white"/>
<path fill-rule="evenodd" clip-rule="evenodd" d="M170 0H320V50H220V150H320V200H220V300H320V350H170V0Z" fill="white"/>
<path fill-rule="evenodd" clip-rule="evenodd" d="M164.44 523L166.088 543.601L167.8 565H162V523H164.44ZM184.504 523L548.592 523L682 518L548.592 513L184.424 513L187.784 471H562.5L699.5 518L562.5 565H187.864L184.504 523ZM167.72 471L166.088 491.399L164.36 513H162L162 471H167.72Z" fill="white"/>
<path fill-rule="evenodd" clip-rule="evenodd" d="M36.5 502.5L36.5 517.5V532.5H58.4069C60.7007 528.173 62 523.238 62 518C62 512.354 60.4904 507.06 57.8528 502.5H36.5ZM79.9093 532.5L144 532.5L159.5 627L175 655L164 517.5L175 380L159.5 408L144 502.5L79.602 502.5C81.1595 507.388 82 512.596 82 518C82 523.037 81.2697 527.904 79.9093 532.5Z" fill="white"/>
<circle cx="31" cy="31" r="31" transform="matrix(1 8.74228e-08 8.74228e-08 -1 0 549)" fill="white"/>
</svg>